<mxfile host="app.diagrams.net" agent="Mozilla/5.0 (X11; Linux x86_64; rv:130.0) Gecko/20100101 Firefox/130.0" version="24.7.15">
  <diagram id="C5RBs43oDa-KdzZeNtuy" name="Page-1">
    <mxGraphModel dx="1414" dy="772" grid="1" gridSize="10" guides="1" tooltips="1" connect="1" arrows="1" fold="1" page="1" pageScale="1" pageWidth="1400" pageHeight="900" math="0" shadow="0">
      <root>
        <mxCell id="WIyWlLk6GJQsqaUBKTNV-0" />
        <mxCell id="WIyWlLk6GJQsqaUBKTNV-1" parent="WIyWlLk6GJQsqaUBKTNV-0" />
        <mxCell id="YznYX4lzRQtl1Vn4JDHn-49" value="" style="verticalLabelPosition=bottom;verticalAlign=top;html=1;shape=mxgraph.basic.rect;fillColor2=none;strokeWidth=1;size=0;indent=5;" vertex="1" parent="WIyWlLk6GJQsqaUBKTNV-1">
          <mxGeometry x="780" y="700" width="20" height="30" as="geometry" />
        </mxCell>
        <mxCell id="YznYX4lzRQtl1Vn4JDHn-48" value="" style="verticalLabelPosition=bottom;verticalAlign=top;html=1;shape=mxgraph.basic.rect;fillColor2=none;strokeWidth=1;size=0;indent=5;" vertex="1" parent="WIyWlLk6GJQsqaUBKTNV-1">
          <mxGeometry x="780" y="570" width="20" height="30" as="geometry" />
        </mxCell>
        <mxCell id="YznYX4lzRQtl1Vn4JDHn-46" value="" style="verticalLabelPosition=bottom;verticalAlign=top;html=1;shape=mxgraph.basic.rect;fillColor2=none;strokeWidth=1;size=0;indent=5;" vertex="1" parent="WIyWlLk6GJQsqaUBKTNV-1">
          <mxGeometry x="1160" y="210" width="20" height="40" as="geometry" />
        </mxCell>
        <mxCell id="YznYX4lzRQtl1Vn4JDHn-45" value="" style="verticalLabelPosition=bottom;verticalAlign=top;html=1;shape=mxgraph.basic.rect;fillColor2=none;strokeWidth=1;size=0;indent=5;" vertex="1" parent="WIyWlLk6GJQsqaUBKTNV-1">
          <mxGeometry x="1160" y="770" width="20" height="40" as="geometry" />
        </mxCell>
        <mxCell id="YznYX4lzRQtl1Vn4JDHn-44" value="" style="verticalLabelPosition=bottom;verticalAlign=top;html=1;shape=mxgraph.basic.rect;fillColor2=none;strokeWidth=1;size=0;indent=5;" vertex="1" parent="WIyWlLk6GJQsqaUBKTNV-1">
          <mxGeometry x="530" y="570" width="20" height="240" as="geometry" />
        </mxCell>
        <mxCell id="YznYX4lzRQtl1Vn4JDHn-43" value="" style="verticalLabelPosition=bottom;verticalAlign=top;html=1;shape=mxgraph.basic.rect;fillColor2=none;strokeWidth=1;size=0;indent=5;" vertex="1" parent="WIyWlLk6GJQsqaUBKTNV-1">
          <mxGeometry x="530" y="460" width="20" height="50" as="geometry" />
        </mxCell>
        <mxCell id="YznYX4lzRQtl1Vn4JDHn-42" value="" style="verticalLabelPosition=bottom;verticalAlign=top;html=1;shape=mxgraph.basic.rect;fillColor2=none;strokeWidth=1;size=0;indent=5;" vertex="1" parent="WIyWlLk6GJQsqaUBKTNV-1">
          <mxGeometry x="240" y="440" width="20" height="370" as="geometry" />
        </mxCell>
        <mxCell id="YznYX4lzRQtl1Vn4JDHn-36" value="" style="verticalLabelPosition=bottom;verticalAlign=top;html=1;shape=mxgraph.basic.rect;fillColor2=none;strokeWidth=1;size=0;indent=5;" vertex="1" parent="WIyWlLk6GJQsqaUBKTNV-1">
          <mxGeometry x="240" y="180" width="20" height="190" as="geometry" />
        </mxCell>
        <mxCell id="M4I0rMNGaV8OxPY2INGT-9" value="&lt;font style=&quot;font-size: 15px;&quot;&gt;CacheManager&lt;/font&gt;" style="shape=umlLifeline;perimeter=lifelinePerimeter;whiteSpace=wrap;html=1;container=1;dropTarget=0;collapsible=0;recursiveResize=0;outlineConnect=0;portConstraint=eastwest;newEdgeStyle={&quot;curved&quot;:0,&quot;rounded&quot;:0};" parent="WIyWlLk6GJQsqaUBKTNV-1" vertex="1">
          <mxGeometry x="200" y="80" width="100" height="780" as="geometry" />
        </mxCell>
        <mxCell id="M4I0rMNGaV8OxPY2INGT-10" value="&lt;font style=&quot;font-size: 15px;&quot;&gt;HashMap&lt;/font&gt;" style="shape=umlLifeline;perimeter=lifelinePerimeter;whiteSpace=wrap;html=1;container=1;dropTarget=0;collapsible=0;recursiveResize=0;outlineConnect=0;portConstraint=eastwest;newEdgeStyle={&quot;curved&quot;:0,&quot;rounded&quot;:0};" parent="WIyWlLk6GJQsqaUBKTNV-1" vertex="1">
          <mxGeometry x="490" y="80" width="100" height="780" as="geometry" />
        </mxCell>
        <mxCell id="M4I0rMNGaV8OxPY2INGT-13" value="&lt;font style=&quot;font-size: 15px;&quot;&gt;SLL&lt;/font&gt;" style="shape=umlLifeline;perimeter=lifelinePerimeter;whiteSpace=wrap;html=1;container=1;dropTarget=0;collapsible=0;recursiveResize=0;outlineConnect=0;portConstraint=eastwest;newEdgeStyle={&quot;curved&quot;:0,&quot;rounded&quot;:0};" parent="WIyWlLk6GJQsqaUBKTNV-1" vertex="1">
          <mxGeometry x="740" y="80" width="100" height="780" as="geometry" />
        </mxCell>
        <mxCell id="YznYX4lzRQtl1Vn4JDHn-0" value="&lt;font style=&quot;font-size: 15px;&quot;&gt;DLL&lt;/font&gt;" style="shape=umlLifeline;perimeter=lifelinePerimeter;whiteSpace=wrap;html=1;container=1;dropTarget=0;collapsible=0;recursiveResize=0;outlineConnect=0;portConstraint=eastwest;newEdgeStyle={&quot;curved&quot;:0,&quot;rounded&quot;:0};" vertex="1" parent="WIyWlLk6GJQsqaUBKTNV-1">
          <mxGeometry x="1120" y="80" width="100" height="790" as="geometry" />
        </mxCell>
        <mxCell id="YznYX4lzRQtl1Vn4JDHn-2" value="&lt;font style=&quot;font-size: 15px;&quot;&gt;insert(K, V)&lt;br&gt;&lt;/font&gt;" style="html=1;verticalAlign=bottom;endArrow=block;curved=0;rounded=0;" edge="1" parent="WIyWlLk6GJQsqaUBKTNV-1" target="M4I0rMNGaV8OxPY2INGT-9">
          <mxGeometry width="80" relative="1" as="geometry">
            <mxPoint x="40" y="180" as="sourcePoint" />
            <mxPoint x="120" y="180" as="targetPoint" />
          </mxGeometry>
        </mxCell>
        <mxCell id="YznYX4lzRQtl1Vn4JDHn-3" value="&lt;font style=&quot;font-size: 15px;&quot;&gt;pushFront(V)&lt;br&gt;&lt;/font&gt;" style="html=1;verticalAlign=bottom;endArrow=block;curved=0;rounded=0;" edge="1" parent="WIyWlLk6GJQsqaUBKTNV-1" target="YznYX4lzRQtl1Vn4JDHn-0">
          <mxGeometry width="80" relative="1" as="geometry">
            <mxPoint x="250" y="210" as="sourcePoint" />
            <mxPoint x="460" y="210" as="targetPoint" />
          </mxGeometry>
        </mxCell>
        <mxCell id="YznYX4lzRQtl1Vn4JDHn-4" value="&lt;font style=&quot;font-size: 15px;&quot;&gt;DLLNode*&lt;br&gt;&lt;/font&gt;" style="html=1;verticalAlign=bottom;endArrow=open;dashed=1;endSize=8;curved=0;rounded=0;" edge="1" parent="WIyWlLk6GJQsqaUBKTNV-1">
          <mxGeometry relative="1" as="geometry">
            <mxPoint x="1169.5" y="250" as="sourcePoint" />
            <mxPoint x="249.5" y="250" as="targetPoint" />
          </mxGeometry>
        </mxCell>
        <mxCell id="YznYX4lzRQtl1Vn4JDHn-5" value="&lt;font style=&quot;font-size: 15px;&quot;&gt;insert(K, DLLNode*)&lt;br&gt;&lt;/font&gt;" style="html=1;verticalAlign=bottom;endArrow=block;curved=0;rounded=0;" edge="1" parent="WIyWlLk6GJQsqaUBKTNV-1" target="M4I0rMNGaV8OxPY2INGT-10">
          <mxGeometry width="80" relative="1" as="geometry">
            <mxPoint x="250" y="310" as="sourcePoint" />
            <mxPoint x="460" y="310" as="targetPoint" />
          </mxGeometry>
        </mxCell>
        <mxCell id="YznYX4lzRQtl1Vn4JDHn-6" value="&lt;font style=&quot;font-size: 13px;&quot;&gt;pushFront(HashNode&amp;lt;K, DLLNode*&amp;gt;)&lt;font style=&quot;font-size: 13px;&quot;&gt;&lt;br&gt;&lt;/font&gt;&lt;/font&gt;" style="html=1;verticalAlign=bottom;endArrow=block;curved=0;rounded=0;" edge="1" parent="WIyWlLk6GJQsqaUBKTNV-1">
          <mxGeometry width="80" relative="1" as="geometry">
            <mxPoint x="540" y="340" as="sourcePoint" />
            <mxPoint x="790" y="340" as="targetPoint" />
          </mxGeometry>
        </mxCell>
        <mxCell id="YznYX4lzRQtl1Vn4JDHn-7" value="&lt;font style=&quot;font-size: 15px;&quot;&gt;get(K)&lt;br&gt;&lt;/font&gt;" style="html=1;verticalAlign=bottom;endArrow=block;curved=0;rounded=0;" edge="1" parent="WIyWlLk6GJQsqaUBKTNV-1">
          <mxGeometry width="80" relative="1" as="geometry">
            <mxPoint x="40" y="440" as="sourcePoint" />
            <mxPoint x="250" y="440" as="targetPoint" />
          </mxGeometry>
        </mxCell>
        <mxCell id="YznYX4lzRQtl1Vn4JDHn-8" value="&lt;font style=&quot;font-size: 15px;&quot;&gt;get(K)&lt;br&gt;&lt;/font&gt;" style="html=1;verticalAlign=bottom;endArrow=block;curved=0;rounded=0;" edge="1" parent="WIyWlLk6GJQsqaUBKTNV-1">
          <mxGeometry width="80" relative="1" as="geometry">
            <mxPoint x="250" y="460" as="sourcePoint" />
            <mxPoint x="539.5" y="460" as="targetPoint" />
          </mxGeometry>
        </mxCell>
        <mxCell id="YznYX4lzRQtl1Vn4JDHn-9" value="&lt;font style=&quot;font-size: 15px;&quot;&gt;SLL::begin()&lt;br&gt;&lt;/font&gt;" style="html=1;verticalAlign=bottom;endArrow=block;curved=0;rounded=0;" edge="1" parent="WIyWlLk6GJQsqaUBKTNV-1">
          <mxGeometry width="80" relative="1" as="geometry">
            <mxPoint x="540" y="480" as="sourcePoint" />
            <mxPoint x="789.5" y="480" as="targetPoint" />
          </mxGeometry>
        </mxCell>
        <mxCell id="YznYX4lzRQtl1Vn4JDHn-11" value="&lt;font style=&quot;font-size: 15px;&quot;&gt;if (iterator-&amp;gt;getKey() != key)&lt;br&gt;&lt;/font&gt;" style="html=1;verticalAlign=bottom;endArrow=block;curved=0;rounded=0;" edge="1" parent="WIyWlLk6GJQsqaUBKTNV-1">
          <mxGeometry width="80" relative="1" as="geometry">
            <mxPoint x="540" y="570" as="sourcePoint" />
            <mxPoint x="790" y="570" as="targetPoint" />
          </mxGeometry>
        </mxCell>
        <mxCell id="YznYX4lzRQtl1Vn4JDHn-12" value="&lt;font style=&quot;font-size: 15px;&quot;&gt;Iterator&lt;/font&gt;" style="html=1;verticalAlign=bottom;endArrow=open;dashed=1;endSize=8;curved=0;rounded=0;" edge="1" parent="WIyWlLk6GJQsqaUBKTNV-1">
          <mxGeometry relative="1" as="geometry">
            <mxPoint x="790" y="510" as="sourcePoint" />
            <mxPoint x="540" y="510" as="targetPoint" />
          </mxGeometry>
        </mxCell>
        <mxCell id="YznYX4lzRQtl1Vn4JDHn-16" value="&lt;font style=&quot;font-size: 15px;&quot;&gt;&lt;i&gt;key not found&lt;/i&gt;&lt;br&gt;&lt;/font&gt;" style="html=1;verticalAlign=bottom;endArrow=open;dashed=1;endSize=8;curved=0;rounded=0;" edge="1" parent="WIyWlLk6GJQsqaUBKTNV-1">
          <mxGeometry relative="1" as="geometry">
            <mxPoint x="790" y="600" as="sourcePoint" />
            <mxPoint x="540" y="600" as="targetPoint" />
          </mxGeometry>
        </mxCell>
        <mxCell id="YznYX4lzRQtl1Vn4JDHn-17" value="&lt;font style=&quot;font-size: 15px;&quot;&gt;&lt;i&gt;cache miss&lt;br&gt;&lt;/i&gt;&lt;/font&gt;" style="html=1;verticalAlign=bottom;endArrow=open;dashed=1;endSize=8;curved=0;rounded=0;" edge="1" parent="WIyWlLk6GJQsqaUBKTNV-1">
          <mxGeometry relative="1" as="geometry">
            <mxPoint x="540.5" y="600" as="sourcePoint" />
            <mxPoint x="250" y="600" as="targetPoint" />
          </mxGeometry>
        </mxCell>
        <mxCell id="YznYX4lzRQtl1Vn4JDHn-18" value="&lt;font style=&quot;font-size: 15px;&quot;&gt;&lt;i&gt;cache miss&lt;br&gt;&lt;/i&gt;&lt;/font&gt;" style="html=1;verticalAlign=bottom;endArrow=open;dashed=1;endSize=8;curved=0;rounded=0;" edge="1" parent="WIyWlLk6GJQsqaUBKTNV-1">
          <mxGeometry relative="1" as="geometry">
            <mxPoint x="250.5" y="600" as="sourcePoint" />
            <mxPoint x="40" y="600" as="targetPoint" />
          </mxGeometry>
        </mxCell>
        <mxCell id="YznYX4lzRQtl1Vn4JDHn-20" value="&lt;div&gt;&lt;font style=&quot;font-size: 15px;&quot;&gt;if (iterator-&amp;gt;getKey() == key)&lt;/font&gt;&lt;/div&gt;&lt;div&gt;&lt;font style=&quot;font-size: 15px;&quot;&gt;iterator-&amp;gt;getElement()&lt;/font&gt;&lt;/div&gt;" style="html=1;verticalAlign=bottom;endArrow=block;curved=0;rounded=0;" edge="1" parent="WIyWlLk6GJQsqaUBKTNV-1">
          <mxGeometry width="80" relative="1" as="geometry">
            <mxPoint x="540" y="700" as="sourcePoint" />
            <mxPoint x="790" y="700" as="targetPoint" />
          </mxGeometry>
        </mxCell>
        <mxCell id="YznYX4lzRQtl1Vn4JDHn-22" value="&lt;font size=&quot;1&quot;&gt;&lt;span style=&quot;font-size: 15px;&quot;&gt;DLLNode*&lt;/span&gt;&lt;/font&gt;" style="html=1;verticalAlign=bottom;endArrow=open;dashed=1;endSize=8;curved=0;rounded=0;" edge="1" parent="WIyWlLk6GJQsqaUBKTNV-1">
          <mxGeometry relative="1" as="geometry">
            <mxPoint x="790" y="730" as="sourcePoint" />
            <mxPoint x="540" y="730" as="targetPoint" />
          </mxGeometry>
        </mxCell>
        <mxCell id="YznYX4lzRQtl1Vn4JDHn-23" value="&lt;font style=&quot;font-size: 15px;&quot;&gt;DLLNode-&amp;gt;getElement()&lt;/font&gt;" style="html=1;verticalAlign=bottom;endArrow=block;curved=0;rounded=0;" edge="1" parent="WIyWlLk6GJQsqaUBKTNV-1">
          <mxGeometry width="80" relative="1" as="geometry">
            <mxPoint x="540.5" y="770" as="sourcePoint" />
            <mxPoint x="1170" y="770" as="targetPoint" />
          </mxGeometry>
        </mxCell>
        <mxCell id="YznYX4lzRQtl1Vn4JDHn-24" value="&lt;font style=&quot;font-size: 15px;&quot;&gt;V&lt;/font&gt;" style="html=1;verticalAlign=bottom;endArrow=open;dashed=1;endSize=8;curved=0;rounded=0;" edge="1" parent="WIyWlLk6GJQsqaUBKTNV-1" target="M4I0rMNGaV8OxPY2INGT-10">
          <mxGeometry relative="1" as="geometry">
            <mxPoint x="1170" y="810" as="sourcePoint" />
            <mxPoint x="40" y="810" as="targetPoint" />
          </mxGeometry>
        </mxCell>
        <mxCell id="YznYX4lzRQtl1Vn4JDHn-26" value="&lt;div style=&quot;font-size: 15px;&quot;&gt;&lt;font style=&quot;font-size: 15px;&quot;&gt;remove(DLLNode*)&lt;/font&gt;&lt;/div&gt;&lt;div style=&quot;font-size: 15px;&quot;&gt;&lt;font style=&quot;font-size: 15px;&quot;&gt;pushFront(DLLNode*)&lt;/font&gt;&lt;/div&gt;&lt;div style=&quot;font-size: 15px;&quot;&gt;&lt;font style=&quot;font-size: 15px;&quot;&gt;&lt;font style=&quot;font-size: 15px;&quot;&gt;popBack()&lt;/font&gt;&lt;font style=&quot;font-size: 15px;&quot;&gt;&lt;br&gt;&lt;/font&gt;&lt;/font&gt;&lt;/div&gt;" style="text;html=1;align=center;verticalAlign=middle;whiteSpace=wrap;rounded=0;" vertex="1" parent="WIyWlLk6GJQsqaUBKTNV-1">
          <mxGeometry x="1190" y="750" width="140" height="80" as="geometry" />
        </mxCell>
        <mxCell id="YznYX4lzRQtl1Vn4JDHn-27" value="&lt;br&gt;&lt;div style=&quot;font-size: 15px;&quot;&gt;&lt;font style=&quot;font-size: 15px;&quot;&gt;&lt;font style=&quot;font-size: 15px;&quot;&gt;popBack()&lt;/font&gt;&lt;font style=&quot;font-size: 15px;&quot;&gt;&lt;br&gt;&lt;/font&gt;&lt;/font&gt;&lt;/div&gt;" style="text;html=1;align=center;verticalAlign=middle;whiteSpace=wrap;rounded=0;" vertex="1" parent="WIyWlLk6GJQsqaUBKTNV-1">
          <mxGeometry x="1180" y="200" width="90" height="40" as="geometry" />
        </mxCell>
        <mxCell id="YznYX4lzRQtl1Vn4JDHn-28" value="&lt;font style=&quot;font-size: 15px;&quot;&gt;V&lt;/font&gt;" style="html=1;verticalAlign=bottom;endArrow=open;dashed=1;endSize=8;curved=0;rounded=0;" edge="1" parent="WIyWlLk6GJQsqaUBKTNV-1">
          <mxGeometry relative="1" as="geometry">
            <mxPoint x="540" y="810" as="sourcePoint" />
            <mxPoint x="250" y="810" as="targetPoint" />
          </mxGeometry>
        </mxCell>
        <mxCell id="YznYX4lzRQtl1Vn4JDHn-29" value="&lt;font style=&quot;font-size: 15px;&quot;&gt;V&lt;/font&gt;" style="html=1;verticalAlign=bottom;endArrow=open;dashed=1;endSize=8;curved=0;rounded=0;" edge="1" parent="WIyWlLk6GJQsqaUBKTNV-1">
          <mxGeometry relative="1" as="geometry">
            <mxPoint x="250" y="810" as="sourcePoint" />
            <mxPoint x="40" y="810" as="targetPoint" />
          </mxGeometry>
        </mxCell>
        <mxCell id="YznYX4lzRQtl1Vn4JDHn-30" value="&lt;font style=&quot;font-size: 15px;&quot;&gt;SLL because HashMap get() should be O(1) (SLL head). SLL provides external Iterator for the cases where it&#39;s not.&lt;br&gt;&lt;/font&gt;" style="text;html=1;align=center;verticalAlign=middle;whiteSpace=wrap;rounded=0;" vertex="1" parent="WIyWlLk6GJQsqaUBKTNV-1">
          <mxGeometry x="850" y="60" width="140" height="80" as="geometry" />
        </mxCell>
        <mxCell id="YznYX4lzRQtl1Vn4JDHn-31" value="" style="endArrow=open;endSize=12;dashed=1;html=1;rounded=0;" edge="1" parent="WIyWlLk6GJQsqaUBKTNV-1">
          <mxGeometry width="160" relative="1" as="geometry">
            <mxPoint x="590" y="100" as="sourcePoint" />
            <mxPoint x="740" y="100" as="targetPoint" />
          </mxGeometry>
        </mxCell>
        <mxCell id="YznYX4lzRQtl1Vn4JDHn-32" value="&lt;font style=&quot;font-size: 15px;&quot;&gt;Chained HashMap collision resolution&lt;br&gt;&lt;/font&gt;" style="text;html=1;align=center;verticalAlign=middle;whiteSpace=wrap;rounded=0;" vertex="1" parent="WIyWlLk6GJQsqaUBKTNV-1">
          <mxGeometry x="580" y="30" width="170" height="80" as="geometry" />
        </mxCell>
        <mxCell id="YznYX4lzRQtl1Vn4JDHn-41" value="&lt;font style=&quot;font-size: 15px;&quot;&gt;&lt;i&gt;K, V inserted&lt;/i&gt;&lt;br&gt;&lt;/font&gt;" style="text;html=1;align=center;verticalAlign=middle;whiteSpace=wrap;rounded=0;" vertex="1" parent="WIyWlLk6GJQsqaUBKTNV-1">
          <mxGeometry x="270" y="340" width="90" height="30" as="geometry" />
        </mxCell>
      </root>
    </mxGraphModel>
  </diagram>
</mxfile>
